<svg width="130" height="34" viewBox="0 0 130 34" fill="none" xmlns="http://www.w3.org/2000/svg">
  <!-- Brand Icon -->
  <path d="M0.926976 2.00874C0.967623 2.00863 1.00827 2.00852 1.05015 2.00841C1.18769 2.00812 1.32523 2.00827 1.46277 2.00842C1.56185 2.00831 1.66094 2.00817 1.76002 2.008C2.03338 2.00762 2.30675 2.00763 2.58011 2.0077C2.87457 2.00772 3.16903 2.00738 3.4635 2.00708C4.04109 2.00657 4.61868 2.0064 5.19627 2.00637C5.66616 2.00634 6.13604 2.00621 6.60593 2.00602C7.93861 2.00548 9.27128 2.00519 10.604 2.00524C10.6759 2.00524 10.7478 2.00524 10.8219 2.00525C10.8939 2.00525 10.9659 2.00525 11.0401 2.00525C12.2046 2.00528 13.3691 2.00469 14.5336 2.00382C15.7298 2.00293 16.9259 2.00251 18.1221 2.00256C18.7934 2.00258 19.4647 2.00242 20.1361 2.00175C20.7083 2.00119 21.2806 2.00106 21.8528 2.00148C22.1444 2.00168 22.436 2.00168 22.7276 2.00115C24.7415 1.99768 24.7415 1.99768 25.4806 2.06764C25.5266 2.0719 25.5726 2.07616 25.62 2.08055C25.913 2.1149 26.1407 2.19995 26.4045 2.32462C26.4823 2.3536 26.5603 2.38199 26.6387 2.40931C26.8889 2.50148 27.1213 2.62131 27.3583 2.74302C27.5682 2.84557 27.7818 2.9245 28.002 3.00215C28.002 3.0428 28.002 3.08345 28.002 3.12533C28.0413 3.1393 28.0805 3.15328 28.121 3.16768C28.3788 3.27843 28.6188 3.41722 28.8622 3.55648C28.8622 3.59713 28.8622 3.63778 28.8622 3.67967C28.8947 3.69277 28.9273 3.70587 28.9608 3.71937C29.1652 3.83533 29.3262 3.99248 29.4958 4.15316C29.5493 4.20354 29.5493 4.20354 29.604 4.25494C29.6742 4.32122 29.7444 4.38765 29.8143 4.45424C29.8874 4.52361 29.9611 4.59223 30.0351 4.66058C30.7771 5.36588 31.2181 6.2672 31.6271 7.1905C31.6584 7.256 31.6897 7.3215 31.7219 7.389C31.8434 7.6747 31.889 7.9753 31.942 8.2799C31.9626 8.3943 31.9832 8.5088 32.0039 8.6232C32.0127 8.6734 32.0215 8.7235 32.0306 8.7752C32.0546 8.9125 32.0546 8.9125 32.0904 9.0341C32.3086 10.02 32.207 11.4879 31.8114 12.4259C31.7816 12.5448 31.7535 12.6642 31.7269 12.7839C31.66 13.0606 31.5765 13.2949 31.4401 13.5437C31.3804 13.6595 31.3408 13.7725 31.3007 13.8964C31.1542 14.304 30.8712 14.65 30.5902 14.9743C30.4541 15.1192 30.4541 15.1192 30.429 15.263C30.3894 15.4167 30.3031 15.4914 30.1894 15.5977C30.023 15.7543 29.8669 15.9215 29.7082 16.0861C29.5995 16.183 29.5995 16.183 29.4766 16.183C29.4533 16.238 29.4533 16.238 29.4296 16.2941C29.3441 16.4466 29.2621 16.518 29.1231 16.6226C29.0762 16.6579 29.0293 16.6932 28.9809 16.7296C28.905 16.7849 28.905 16.7849 28.8276 16.8413C28.7753 16.8795 28.7229 16.9177 28.669 16.957C26.9444 18.1907 25.0576 18.4435 22.9721 18.419C22.9721 18.419 22.9721 18.419 22.9721 18.419C22.706 18.4159 22.4399 18.4152 22.1737 18.4149C21.4183 18.4137 20.6629 18.41 19.9075 18.4027C19.4874 18.3987 19.0673 18.3969 18.6471 18.3975C18.3831 18.3977 18.1193 18.3953 17.8553 18.3908C17.6526 18.3881 17.45 18.3895 17.2473 18.3903C17.1395 18.3873 17.1395 18.3873 17.0295 18.3842C16.6557 18.3897 16.3964 18.454 16.0983 18.6869C15.6621 19.1884 15.7551 19.8488 15.7649 20.4773C15.7649 20.6201 15.7646 20.7629 15.764 20.9057C15.7634 21.2124 15.7647 21.5189 15.7675 21.8256C15.772 22.3103 15.7722 22.795 15.7718 23.2798C15.7717 23.9592 15.7737 24.6385 15.7773 25.3179C15.781 26.0166 15.7841 26.7153 15.786 27.414C15.7861 27.4571 15.7862 27.5002 15.7863 27.5446C15.7876 28.0149 15.7885 28.4853 15.789 28.9557C15.789 28.9971 15.7891 29.0384 15.7891 29.081C15.7893 29.2871 15.7895 29.4932 15.7896 29.6992C15.79 30.1813 15.7919 30.6633 15.795 31.1454C15.7968 31.4448 15.7975 31.7442 15.798 32.0436C15.7985 32.1826 15.7994 32.3217 15.8007 32.4607C15.8025 32.6502 15.8028 32.8396 15.8027 33.0291C15.8036 33.0843 15.8045 33.1396 15.8054 33.1965C15.8038 33.4459 15.7942 33.5812 15.6651 33.7999C15.4909 33.9561 15.3901 33.9863 15.1622 34C14.9331 33.9694 14.8 33.8179 14.6483 33.6579C14.5909 33.6009 14.5909 33.6009 14.5323 33.5428C14.4434 33.4542 14.3552 33.365 14.2674 33.2753C14.1003 33.1051 13.931 32.9372 13.7612 32.7696C13.3711 32.3839 12.9833 31.9958 12.5957 31.6074C12.4794 31.4908 12.363 31.3743 12.2467 31.2578C11.8402 30.8509 11.4338 30.4438 11.0276 30.0365C10.6494 29.6573 10.2708 29.2785 9.89202 28.8997C9.56565 28.5734 9.23953 28.2468 8.91359 27.92C8.71937 27.7253 8.52506 27.5307 8.33052 27.3363C8.14843 27.1544 7.96664 26.9722 7.78507 26.7897C7.7183 26.7227 7.65142 26.6558 7.58444 26.589C7.49339 26.4982 7.40273 26.4071 7.31216 26.3158C7.26125 26.2648 7.21034 26.2138 7.15789 26.1613C7.05011 26.0379 7.05011 26.0379 7.05011 25.9147C6.99939 25.8939 6.99939 25.8939 6.94764 25.8728C6.76258 25.7678 6.6254 25.6278 6.47772 25.4771C6.44592 25.4451 6.41411 25.4132 6.38134 25.3802C6.27645 25.2747 6.17199 25.1687 6.06752 25.0627C5.99439 24.9891 5.92124 24.9154 5.84806 24.8418C5.65541 24.6478 5.46311 24.4536 5.27091 24.2592C4.96381 23.9487 4.65629 23.6386 4.34857 23.3287C4.24149 23.2207 4.13463 23.1125 4.02778 23.0043C3.96152 22.9375 3.89525 22.8707 3.82898 22.8038C3.79966 22.774 3.77035 22.7442 3.74015 22.7135C3.54206 22.5143 3.33436 22.3358 3.1178 22.1575C2.94115 21.992 2.94115 21.992 2.81059 21.8496C2.81059 21.8089 2.81059 21.7683 2.81059 21.7264C2.74976 21.7061 2.68893 21.6857 2.62626 21.6648C2.53173 21.5687 2.53173 21.5687 2.43089 21.4461C2.19924 21.1724 1.95154 20.9198 1.69694 20.6678C1.65457 20.6256 1.6122 20.5834 1.56854 20.5399C1.4866 20.4583 1.40461 20.3768 1.32254 20.2953C1.1832 20.1569 1.0446 20.0177 0.905873 19.8786C0.833283 19.8069 0.833283 19.8069 0.759227 19.7338C0.712576 19.6875 0.665926 19.6413 0.617861 19.5937C0.570735 19.5472 0.52361 19.5007 0.475056 19.4527C0.298615 19.2672 0.213185 19.1481 0.218486 18.8931C0.218882 18.8512 0.219278 18.8093 0.219686 18.7661C0.230006 18.6467 0.230006 18.6467 0.291448 18.462C0.535475 18.2989 0.746728 18.3212 1.03004 18.322C1.11613 18.3216 1.11613 18.3216 1.20397 18.3211C1.39713 18.3202 1.59028 18.3202 1.78344 18.3201C1.92159 18.3196 2.05974 18.3191 2.19789 18.3185C2.49581 18.3174 2.79372 18.3167 3.09164 18.3162C3.56251 18.3155 4.03337 18.314 4.50424 18.3123C5.16426 18.31 5.82427 18.3081 6.48429 18.3066C6.54713 18.3064 6.54713 18.3064 6.61124 18.3063C6.65319 18.3062 6.69514 18.3061 6.73835 18.306C7.33275 18.3046 7.92715 18.303 8.52155 18.3014C8.56336 18.3013 8.60516 18.3011 8.64824 18.301C9.34526 18.2991 10.0423 18.2969 10.7393 18.2945C11.2076 18.293 11.6759 18.2918 12.1441 18.2909C12.4353 18.2903 12.7265 18.2894 13.0176 18.2884C13.1528 18.2881 13.288 18.2878 13.4233 18.2876C13.6076 18.2874 13.7919 18.2868 13.9762 18.2861C14.0299 18.2861 14.0837 18.2861 14.139 18.2862C14.3852 18.2849 14.613 18.2772 14.8533 18.2156C14.9317 17.8614 14.9317 17.8614 14.8149 17.5304C14.7667 17.4719 14.7186 17.4135 14.669 17.3533C14.6221 17.2923 14.5752 17.2313 14.5269 17.1685C14.3785 16.9932 14.2113 16.849 14.0353 16.7022C13.8896 16.5785 13.7578 16.4432 13.6245 16.3062C13.5902 16.2725 13.556 16.2389 13.5208 16.2042C13.3502 16.0361 13.1845 15.8683 13.0331 15.6826C12.8903 15.5093 12.7403 15.3545 12.5799 15.1975C12.5477 15.1646 12.5155 15.1316 12.4822 15.0977C12.2923 14.9038 12.0986 14.7197 11.8925 14.5431C11.7083 14.3843 11.5639 14.2181 11.4125 14.0273C11.31 13.9342 11.205 13.8455 11.0979 13.7578C10.9493 13.629 10.8138 13.4894 10.6752 13.3498C10.6098 13.2842 10.5443 13.2186 10.4788 13.153C10.4428 13.117 10.4068 13.081 10.3698 13.0438C10.3311 13.0052 10.2925 12.9665 10.2527 12.9266C10.166 12.8398 10.0792 12.7529 9.99245 12.666C9.94634 12.6198 9.90023 12.5736 9.85272 12.5261C8.823 11.4949 7.79345 10.4636 6.764 9.4321C6.61196 9.2798 6.45992 9.1274 6.30787 8.9751C6.27761 8.9448 6.24734 8.9144 6.21616 8.8832C5.72534 8.3915 5.23442 7.8998 4.74346 7.4082C4.23899 6.9031 3.73464 6.3978 3.23039 5.89249C2.94743 5.60891 2.66441 5.32539 2.38127 5.042C2.11511 4.77561 1.84909 4.50907 1.58319 4.24242C1.48556 4.14457 1.38787 4.04676 1.29012 3.94902C1.15676 3.81564 1.0236 3.68207 0.890474 3.54845C0.851714 3.50978 0.812953 3.4711 0.773019 3.43125C0.239656 2.89476 0.239656 2.89476 0.203125 2.60179C0.231285 2.37596 0.277459 2.25768 0.414333 2.07825C0.587974 1.99122 0.732679 2.00885 0.926976 2.00874Z" fill="url(#paint0_linear_7130_1281)"/>
  
  <!-- Brand Text -->
  <text x="36" y="24" fill="white" font-family="Poppins, system-ui, -apple-system, sans-serif" font-weight="700" font-size="20" letter-spacing="-0.03em">Thumb<tspan fill="#6366F1">ly</tspan></text>
  
  <defs>
    <linearGradient id="paint0_linear_7130_1281" x1="-2.03687" y1="-2.8" x2="21.0031" y2="22.16" gradientUnits="userSpaceOnUse">
      <stop stop-color="#6366F1"/>
      <stop offset="1" stop-color="#06B6D4"/>
    </linearGradient>
  </defs>
</svg>
