<svg width="376" height="72" viewBox="0 0 376 72" fill="none" xmlns="http://www.w3.org/2000/svg">
  <!-- Brand Icon -->
  <g clip-path="url(#clip0_8993_1015)">
    <path d="M54.1842 64C63.5052 63.8099 71 56.1806 71 46.8014C71 42.24 69.1905 37.8655 65.9694 34.6401L37.3685 6V23.8018C37.3685 26.7789 38.5495 29.6343 40.652 31.7395L47.3519 38.4487L47.3702 38.4665L58.6043 49.7161C58.9691 50.0813 58.9691 50.6736 58.6043 51.0389C58.2396 51.4043 57.6479 51.4043 57.2832 51.0389L53.4108 47.1613H17.5892L13.7168 51.0389C13.352 51.4043 12.7605 51.4043 12.3957 51.0389C12.0308 50.6736 12.0308 50.0813 12.3957 49.7161L23.6298 38.4665L23.6481 38.4487L30.348 31.7395C32.4505 29.6343 33.6315 26.7789 33.6315 23.8018V6L5.0305 34.6401C1.80951 37.8655 0 42.24 0 46.8014C0 56.1806 7.49488 63.8099 16.8158 64H54.1842Z" fill="white"/>
  </g>
  
  <!-- Brand Text -->
  <text x="88" y="50" fill="white" font-family="Poppins, system-ui, -apple-system, sans-serif" font-weight="700" font-size="40" letter-spacing="-0.03em">Thumb<tspan fill="#6366F1">ly</tspan></text>
  
  <defs>
    <clipPath id="clip0_8993_1015">
      <rect width="71" height="58" fill="white" transform="translate(0 6)"/>
    </clipPath>
  </defs>
</svg>
